<?xml version="1.0" encoding="utf-8"?>
<!-- Generator: Adobe Illustrator 16.0.0, SVG Export Plug-In . SVG Version: 6.00 Build 0)  -->
<!DOCTYPE svg PUBLIC "-//W3C//DTD SVG 1.1//EN" "http://www.w3.org/Graphics/SVG/1.1/DTD/svg11.dtd">
<svg version="1.1" id="Capa_1" xmlns="http://www.w3.org/2000/svg" xmlns:xlink="http://www.w3.org/1999/xlink" x="0px" y="0px"
	 width="350px" height="126.602px" viewBox="0 0 350 126.602" enable-background="new 0 0 350 126.602" xml:space="preserve">
<g>
	<g>
		<path fill="#FFFFFF" d="M186.43,58.06l-2.342-11.012h-2.44V58.06h-3.265V33.497h5.211c1.363,0,2.457,0.121,3.282,0.363
			c0.825,0.242,1.457,0.621,1.896,1.137c0.439,0.517,0.731,1.17,0.874,1.962s0.215,1.737,0.215,2.835
			c0,0.923-0.039,1.77-0.115,2.539c-0.078,0.77-0.221,1.446-0.429,2.028c-0.21,0.583-0.495,1.072-0.858,1.467
			c-0.362,0.396-0.83,0.671-1.401,0.824l3.001,11.408H186.43z M184.022,44.542c0.615,0,1.105-0.077,1.468-0.23
			s0.643-0.412,0.841-0.775s0.324-0.841,0.379-1.434c0.055-0.594,0.083-1.319,0.083-2.176c0-0.747-0.028-1.379-0.083-1.896
			c-0.055-0.517-0.182-0.929-0.379-1.237c-0.198-0.307-0.5-0.532-0.907-0.676c-0.407-0.143-0.952-0.214-1.633-0.214h-2.144v8.638
			H184.022z"/>
		<path fill="#FFFFFF" d="M201.106,33.497v2.572h-6.168v7.748h5.179l-0.231,2.604h-4.947v9.133h6.333v2.506h-9.598V33.497H201.106z"
			/>
		<path fill="#FFFFFF" d="M208.824,33.497c1.781,0,3.183,0.259,4.205,0.775c1.022,0.517,1.792,1.286,2.309,2.308
			c0.517,1.022,0.841,2.303,0.973,3.841c0.132,1.539,0.198,3.33,0.198,5.374c0,2.242-0.061,4.144-0.182,5.704
			c-0.121,1.561-0.429,2.825-0.923,3.792c-0.495,0.967-1.243,1.671-2.243,2.11c-1.001,0.44-2.369,0.659-4.106,0.659h-5.738V33.497
			H208.824z M206.549,36.002v19.354h2.572c0.924,0,1.654-0.176,2.193-0.527c0.538-0.352,0.945-0.912,1.22-1.682
			c0.275-0.769,0.451-1.758,0.528-2.967c0.076-1.208,0.115-2.67,0.115-4.385c0-1.802-0.033-3.324-0.099-4.566
			c-0.066-1.241-0.237-2.247-0.512-3.017c-0.275-0.769-0.704-1.33-1.286-1.682c-0.583-0.351-1.38-0.527-2.392-0.527H206.549z"/>
		<path fill="#FFFFFF" d="M229.106,33.497v22.057h5.046v2.506h-8.344V33.497H229.106z"/>
		<path fill="#FFFFFF" d="M245.333,33.497v2.572h-6.168v7.748h5.179l-0.231,2.604h-4.947v9.133h6.333v2.506H235.9V33.497H245.333z"
			/>
		<path fill="#FFFFFF" d="M259.878,45.465V58.06h-2.408l-0.297-2.341c-0.153,0.374-0.346,0.725-0.577,1.055
			c-0.23,0.33-0.522,0.621-0.873,0.874c-0.353,0.253-0.781,0.456-1.287,0.61s-1.1,0.231-1.78,0.231
			c-1.319,0-2.348-0.303-3.084-0.907c-0.737-0.604-1.275-1.467-1.616-2.588c-0.341-1.121-0.55-2.473-0.627-4.055
			s-0.115-3.352-0.115-5.308c0-1.913,0.044-3.644,0.132-5.193c0.088-1.55,0.341-2.869,0.759-3.957
			c0.417-1.088,1.066-1.929,1.946-2.522c0.879-0.593,2.121-0.89,3.727-0.89c1.429,0,2.539,0.144,3.331,0.429
			c0.791,0.286,1.385,0.737,1.781,1.352c0.396,0.615,0.643,1.413,0.742,2.39c0.099,0.979,0.181,2.149,0.247,3.511l-2.705,0.66
			c-0.044-1.033-0.099-1.913-0.164-2.638c-0.066-0.726-0.21-1.319-0.429-1.78c-0.221-0.462-0.534-0.797-0.94-1.006
			c-0.407-0.208-0.984-0.313-1.731-0.313c-0.813,0-1.446,0.209-1.896,0.626c-0.451,0.417-0.786,1.039-1.006,1.863
			s-0.357,1.863-0.412,3.116c-0.056,1.252-0.083,2.704-0.083,4.352c0,1.539,0.022,2.94,0.066,4.204
			c0.044,1.264,0.165,2.341,0.362,3.231c0.198,0.89,0.489,1.583,0.874,2.077s0.918,0.742,1.6,0.742c0.968,0,1.748-0.307,2.342-0.923
			c0.594-0.615,0.945-1.418,1.056-2.407v-4.517h-3.067l0.429-2.572H259.878z"/>
		<path fill="#FFFFFF" d="M265.55,33.497V58.06h-3.265V33.497H265.55z"/>
		<path fill="#FFFFFF" d="M273.63,33.068c1.1,0,1.984,0.144,2.655,0.429c0.671,0.286,1.188,0.676,1.55,1.17
			c0.363,0.495,0.604,1.083,0.726,1.764c0.121,0.682,0.203,1.407,0.248,2.176l-2.605,0.363c-0.045-0.527-0.094-1-0.148-1.418
			c-0.056-0.417-0.171-0.769-0.347-1.055s-0.424-0.5-0.742-0.643c-0.318-0.143-0.753-0.214-1.303-0.214
			c-0.572,0-1.028,0.077-1.368,0.231c-0.342,0.154-0.605,0.368-0.792,0.643c-0.188,0.275-0.313,0.616-0.379,1.022
			c-0.066,0.407-0.1,0.863-0.1,1.368c0,0.638,0.071,1.192,0.215,1.665c0.143,0.473,0.346,0.89,0.61,1.253
			c0.264,0.363,0.577,0.682,0.939,0.956c0.363,0.275,0.764,0.544,1.204,0.808c0.659,0.374,1.303,0.764,1.93,1.17
			c0.626,0.407,1.187,0.913,1.682,1.517c0.495,0.605,0.891,1.352,1.188,2.242s0.445,2.017,0.445,3.379
			c0,2.11-0.457,3.737-1.369,4.88s-2.49,1.714-4.732,1.714c-1.1,0-1.995-0.138-2.688-0.412c-0.692-0.275-1.248-0.714-1.665-1.319
			c-0.418-0.604-0.726-1.39-0.924-2.357c-0.197-0.967-0.341-2.143-0.429-3.528l2.804-0.561c0.044,1.033,0.12,1.907,0.23,2.621
			c0.11,0.714,0.27,1.292,0.479,1.731c0.209,0.44,0.489,0.753,0.841,0.94s0.803,0.28,1.353,0.28c0.594,0,1.071-0.087,1.435-0.264
			c0.362-0.176,0.643-0.434,0.841-0.775c0.198-0.34,0.335-0.769,0.412-1.286c0.077-0.516,0.115-1.115,0.115-1.797
			c0-0.792-0.077-1.472-0.23-2.044c-0.154-0.571-0.379-1.066-0.676-1.484c-0.297-0.417-0.666-0.796-1.105-1.138
			c-0.439-0.34-0.935-0.676-1.483-1.005c-0.594-0.352-1.16-0.736-1.699-1.154s-1.022-0.912-1.451-1.484
			c-0.429-0.571-0.77-1.23-1.022-1.978c-0.253-0.747-0.379-1.637-0.379-2.671c0-0.879,0.093-1.67,0.28-2.374
			c0.187-0.703,0.5-1.302,0.94-1.797c0.439-0.495,1.027-0.879,1.764-1.154C271.612,33.206,272.53,33.068,273.63,33.068z"/>
		<path fill="#FFFFFF" d="M284.646,33.497v22.057h5.046v2.506h-8.344V33.497H284.646z"/>
		<path fill="#FFFFFF" d="M299.124,52.158h-4.584l-1.022,5.902h-3.101l4.881-24.563h3.463l4.947,24.563h-3.595L299.124,52.158z
			 M294.771,49.553h4.057l-1.979-10.749L294.771,49.553z"/>
		<path fill="#FFFFFF" d="M313.372,33.497v2.572h-4.188V58.06h-3.266V36.068h-4.089v-2.572H313.372z"/>
		<path fill="#FFFFFF" d="M318.12,33.497V58.06h-3.265V33.497H318.12z"/>
		<path fill="#FFFFFF" d="M326.563,52.422l3.364-18.925h3.1L328.08,58.06h-3.43l-4.914-24.563h3.529L326.563,52.422z"/>
		<path fill="#FFFFFF" d="M340.283,52.158h-4.584l-1.022,5.902h-3.101l4.881-24.563h3.463l4.947,24.563h-3.595L340.283,52.158z
			 M335.93,49.553h4.057l-1.979-10.749L335.93,49.553z"/>
	</g>
	<g>
		<path fill="#1B78B6" d="M181.813,71.557v21.805h-3.223V63.445h5.004l5.471,23.733l5.556-23.733h4.708v29.917h-3.478V71.557
			l-4.878,21.805h-4.071L181.813,71.557z"/>
		<path fill="#1B78B6" d="M210.058,63.445v18.03c0,1.633,0.027,3.032,0.084,4.197c0.057,1.164,0.198,2.121,0.425,2.871
			c0.226,0.749,0.565,1.299,1.018,1.646s1.074,0.521,1.866,0.521c0.764,0,1.371-0.174,1.823-0.521s0.791-0.897,1.019-1.646
			c0.226-0.75,0.366-1.707,0.424-2.871c0.056-1.165,0.085-2.563,0.085-4.197v-18.03h4.24v21.283c0,1.446-0.084,2.73-0.254,3.855
			c-0.17,1.124-0.517,2.082-1.039,2.871c-0.523,0.79-1.287,1.393-2.29,1.807c-1.004,0.415-2.34,0.623-4.008,0.623
			c-1.611,0-2.92-0.201-3.923-0.603c-1.004-0.401-1.774-0.99-2.312-1.768c-0.537-0.775-0.897-1.732-1.081-2.871
			c-0.185-1.137-0.276-2.442-0.276-3.915V63.445H210.058z"/>
		<path fill="#1B78B6" d="M227.656,63.445h4.368l7.677,20.721V63.445h3.604v29.917h-4.325l-7.719-20.68v20.68h-3.605V63.445z"/>
		<path fill="#1B78B6" d="M254.205,63.445v29.917h-4.198V63.445H254.205z"/>
		<path fill="#1B78B6" d="M268.964,66.055c-0.934,0-1.669,0.235-2.206,0.703c-0.537,0.469-0.933,1.199-1.188,2.188
			c-0.254,0.991-0.417,2.269-0.487,3.835c-0.071,1.566-0.106,3.447-0.106,5.642c0,2.222,0.035,4.11,0.106,5.663
			c0.07,1.552,0.233,2.824,0.487,3.814c0.255,0.99,0.65,1.706,1.188,2.148c0.537,0.441,1.272,0.662,2.206,0.662
			c0.933,0,1.653-0.134,2.162-0.401c0.51-0.268,0.884-0.703,1.124-1.306c0.24-0.602,0.389-1.398,0.445-2.389s0.113-2.222,0.17-3.694
			l4.198,0.321c-0.142,1.82-0.29,3.393-0.445,4.718s-0.495,2.43-1.018,3.313c-0.523,0.883-1.294,1.539-2.312,1.968
			c-1.018,0.428-2.46,0.643-4.325,0.643c-2.036,0-3.62-0.328-4.75-0.984c-1.132-0.655-1.966-1.626-2.503-2.911
			s-0.862-2.892-0.975-4.818c-0.113-1.928-0.17-4.177-0.17-6.747c0-2.543,0.057-4.779,0.17-6.706
			c0.112-1.928,0.438-3.547,0.975-4.859c0.537-1.312,1.371-2.295,2.503-2.952c1.13-0.656,2.714-0.984,4.75-0.984
			c1.894,0,3.371,0.181,4.432,0.542c1.06,0.361,1.852,0.957,2.375,1.787c0.522,0.83,0.854,1.908,0.996,3.232
			c0.142,1.325,0.24,2.952,0.297,4.879l-4.113,0.522c-0.058-1.66-0.121-2.998-0.191-4.016c-0.07-1.017-0.232-1.807-0.487-2.369
			c-0.255-0.563-0.636-0.944-1.146-1.145C270.617,66.156,269.896,66.055,268.964,66.055z"/>
		<path fill="#1B78B6" d="M287.411,63.445v29.917h-4.198V63.445H287.411z"/>
		<path fill="#1B78B6" d="M299.667,63.445c2.008,0,3.647,0.175,4.92,0.522c1.272,0.348,2.269,0.863,2.99,1.546
			c0.721,0.683,1.215,1.533,1.484,2.55c0.268,1.018,0.402,2.182,0.402,3.494c0,1.473-0.135,2.798-0.402,3.976
			c-0.27,1.178-0.75,2.175-1.442,2.991c-0.693,0.817-1.647,1.446-2.862,1.888c-1.216,0.441-2.771,0.663-4.665,0.663h-1.739v12.288
			h-4.156V63.445H299.667z M298.353,66.698v11.244h2.248c1.018,0,1.837-0.134,2.46-0.401c0.621-0.268,1.103-0.663,1.441-1.185
			c0.34-0.522,0.558-1.164,0.657-1.927c0.099-0.763,0.148-1.626,0.148-2.59c0-0.83-0.05-1.566-0.148-2.209
			c-0.1-0.643-0.304-1.185-0.614-1.626c-0.312-0.442-0.771-0.77-1.379-0.984c-0.608-0.214-1.436-0.321-2.48-0.321H298.353z"/>
		<path fill="#1B78B6" d="M322.738,86.174h-5.896l-1.314,7.188h-3.986l6.276-29.917h4.453l6.361,29.917h-4.622L322.738,86.174z
			 M317.14,83.001h5.217l-2.545-13.091L317.14,83.001z"/>
		<path fill="#1B78B6" d="M338.345,63.445V90.31h6.488v3.052h-10.729V63.445H338.345z"/>
	</g>
	<g>
		<path fill="#FFFFFF" d="M92.246,111.506c-0.37,0-0.661,0.098-0.874,0.294c-0.212,0.195-0.369,0.501-0.47,0.915
			c-0.101,0.414-0.165,0.948-0.193,1.604c-0.028,0.654-0.042,1.441-0.042,2.359c0,0.929,0.014,1.718,0.042,2.367
			c0.028,0.649,0.092,1.182,0.193,1.596c0.101,0.414,0.258,0.713,0.47,0.897c0.213,0.186,0.504,0.277,0.874,0.277
			s0.655-0.056,0.857-0.168c0.201-0.111,0.35-0.294,0.445-0.546s0.154-0.584,0.176-0.999c0.022-0.414,0.045-0.929,0.067-1.545
			l1.663,0.135c-0.056,0.762-0.115,1.419-0.177,1.973c-0.062,0.555-0.196,1.017-0.403,1.386c-0.208,0.369-0.512,0.644-0.916,0.822
			c-0.403,0.18-0.974,0.27-1.713,0.27c-0.806,0-1.434-0.138-1.881-0.412c-0.448-0.273-0.778-0.68-0.991-1.217
			c-0.213-0.538-0.342-1.209-0.386-2.016c-0.045-0.806-0.067-1.746-0.067-2.82c0-1.063,0.022-1.998,0.067-2.805
			c0.044-0.806,0.173-1.483,0.386-2.031c0.212-0.549,0.543-0.96,0.991-1.234s1.075-0.411,1.881-0.411
			c0.75,0,1.335,0.075,1.755,0.227c0.42,0.15,0.733,0.4,0.94,0.747c0.208,0.347,0.339,0.798,0.395,1.352
			c0.056,0.554,0.095,1.234,0.118,2.04l-1.629,0.219c-0.022-0.694-0.048-1.254-0.076-1.68c-0.028-0.425-0.092-0.756-0.193-0.99
			c-0.101-0.235-0.252-0.395-0.453-0.479C92.901,111.548,92.616,111.506,92.246,111.506z"/>
		<path fill="#FFFFFF" d="M99.469,113.655c0.772,0,1.369,0.129,1.789,0.386c0.42,0.258,0.728,0.604,0.924,1.041
			s0.311,0.943,0.344,1.52c0.034,0.577,0.051,1.179,0.051,1.806s-0.017,1.223-0.051,1.788c-0.033,0.565-0.148,1.063-0.344,1.494
			c-0.196,0.432-0.504,0.775-0.924,1.033c-0.42,0.257-1.016,0.386-1.789,0.386c-0.773,0-1.367-0.129-1.781-0.386
			c-0.415-0.258-0.72-0.602-0.916-1.033c-0.196-0.431-0.311-0.929-0.344-1.494s-0.05-1.161-0.05-1.788s0.017-1.229,0.05-1.806
			c0.034-0.576,0.148-1.083,0.344-1.52s0.504-0.783,0.924-1.041C98.116,113.784,98.707,113.655,99.469,113.655z M99.469,114.931
			c-0.37,0-0.655,0.067-0.857,0.202c-0.202,0.134-0.353,0.344-0.454,0.63c-0.101,0.285-0.159,0.646-0.176,1.083
			c-0.017,0.437-0.025,0.957-0.025,1.562s0.008,1.122,0.025,1.553c0.017,0.432,0.076,0.789,0.176,1.075
			c0.101,0.285,0.252,0.495,0.454,0.629c0.202,0.135,0.487,0.202,0.857,0.202c0.369,0,0.655-0.067,0.856-0.202
			c0.202-0.134,0.353-0.344,0.454-0.629c0.101-0.286,0.16-0.644,0.176-1.075c0.017-0.431,0.025-0.948,0.025-1.553
			s-0.009-1.125-0.025-1.562s-0.076-0.798-0.176-1.083c-0.101-0.286-0.252-0.496-0.454-0.63
			C100.124,114.998,99.838,114.931,99.469,114.931z"/>
		<path fill="#FFFFFF" d="M105.121,114.075c0.017,0.111,0.033,0.234,0.05,0.369c0.017,0.134,0.031,0.263,0.042,0.386
			c0.011,0.124,0.017,0.225,0.017,0.303c0.269-0.471,0.594-0.834,0.974-1.092c0.381-0.257,0.862-0.386,1.445-0.386
			c0.403,0,0.733,0.066,0.991,0.201c0.258,0.135,0.462,0.316,0.613,0.546s0.254,0.489,0.311,0.78
			c0.056,0.292,0.084,0.594,0.084,0.907v6.834h-1.579v-6.918c0-0.336-0.09-0.599-0.269-0.789s-0.442-0.286-0.789-0.286
			c-0.392,0-0.708,0.112-0.949,0.336c-0.241,0.225-0.484,0.588-0.73,1.092v6.565h-1.579v-9.118h1.327
			C105.089,113.873,105.104,113.963,105.121,114.075z"/>
		<path fill="#FFFFFF" d="M113.847,113.655c0.47,0,0.859,0.053,1.167,0.159c0.308,0.106,0.557,0.277,0.748,0.512
			c0.19,0.235,0.33,0.544,0.42,0.924c0.089,0.381,0.145,0.846,0.168,1.394l-1.293,0.202c-0.045-0.694-0.143-1.189-0.294-1.486
			c-0.151-0.297-0.457-0.445-0.916-0.445c-0.358,0-0.636,0.079-0.832,0.235c-0.196,0.157-0.342,0.386-0.437,0.688
			c-0.095,0.302-0.151,0.666-0.168,1.092c-0.017,0.425-0.025,0.906-0.025,1.443c0,0.538,0.008,1.021,0.025,1.453
			c0.017,0.431,0.067,0.797,0.151,1.1c0.084,0.302,0.216,0.534,0.395,0.696c0.179,0.163,0.431,0.244,0.756,0.244
			c0.28,0,0.506-0.051,0.68-0.151c0.173-0.101,0.308-0.243,0.403-0.428c0.095-0.186,0.165-0.412,0.21-0.681
			c0.044-0.269,0.078-0.57,0.101-0.906l1.293,0.134c-0.022,0.403-0.064,0.801-0.126,1.192s-0.185,0.742-0.37,1.05
			s-0.451,0.557-0.798,0.747s-0.812,0.285-1.394,0.285c-0.706,0-1.254-0.126-1.646-0.378c-0.392-0.252-0.681-0.596-0.865-1.032
			s-0.294-0.94-0.328-1.512c-0.034-0.57-0.05-1.175-0.05-1.813c0-0.648,0.017-1.259,0.05-1.83s0.148-1.068,0.344-1.494
			s0.499-0.765,0.907-1.016C112.534,113.781,113.107,113.655,113.847,113.655z"/>
		<path fill="#FFFFFF" d="M120.296,113.655c0.716,0,1.273,0.123,1.671,0.369c0.397,0.246,0.691,0.565,0.882,0.957
			c0.19,0.392,0.302,0.828,0.336,1.31c0.033,0.481,0.05,0.957,0.05,1.428v0.705h-4.417c0,0.459,0.014,0.896,0.042,1.31
			c0.028,0.414,0.095,0.781,0.201,1.1c0.106,0.319,0.269,0.571,0.487,0.756s0.523,0.277,0.916,0.277
			c0.548,0,0.921-0.162,1.117-0.487c0.196-0.324,0.322-0.767,0.378-1.326l1.277,0.185c-0.056,0.47-0.146,0.885-0.269,1.242
			c-0.123,0.358-0.294,0.658-0.512,0.898c-0.218,0.241-0.498,0.423-0.84,0.546s-0.759,0.185-1.251,0.185
			c-0.728,0-1.293-0.132-1.696-0.395s-0.706-0.613-0.907-1.05c-0.201-0.437-0.325-0.938-0.369-1.502
			c-0.045-0.565-0.067-1.15-0.067-1.755c0-0.649,0.022-1.266,0.067-1.848c0.044-0.582,0.165-1.085,0.361-1.511
			s0.493-0.765,0.89-1.016C119.039,113.781,119.591,113.655,120.296,113.655z M120.313,114.78c-0.336,0-0.596,0.066-0.781,0.201
			c-0.185,0.135-0.328,0.319-0.429,0.554c-0.101,0.235-0.165,0.519-0.193,0.849c-0.028,0.33-0.048,0.696-0.059,1.1h2.906v-0.672
			c0-0.279-0.02-0.543-0.059-0.789s-0.109-0.462-0.21-0.646c-0.101-0.185-0.246-0.33-0.437-0.437S120.615,114.78,120.313,114.78z"/>
		<path fill="#FFFFFF" d="M124.613,113.806h1.579v9.723c0,0.604-0.04,1.105-0.118,1.503c-0.079,0.397-0.202,0.711-0.37,0.94
			s-0.386,0.392-0.655,0.486c-0.269,0.096-0.6,0.144-0.991,0.144c-0.38,0-0.688-0.054-0.924-0.16s-0.414-0.232-0.538-0.378
			l0.302-1.125c0.112,0.157,0.25,0.264,0.412,0.319c0.163,0.056,0.322,0.084,0.479,0.084c0.145,0,0.271-0.025,0.378-0.075
			c0.106-0.051,0.193-0.154,0.26-0.311c0.067-0.157,0.115-0.384,0.143-0.681s0.042-0.691,0.042-1.184V113.806z M126.192,111.942
			h-1.579v-2.183h1.579V111.942z"/>
		<path fill="#FFFFFF" d="M130.072,113.655c0.583,0,1.053,0.066,1.411,0.201s0.638,0.339,0.84,0.613s0.336,0.615,0.403,1.023
			c0.067,0.409,0.101,0.882,0.101,1.419v4.249c0,0.324,0.064,0.526,0.193,0.604c0.128,0.078,0.271,0.117,0.428,0.117l-0.134,1.041
			c-0.571,0-0.986-0.098-1.243-0.294c-0.258-0.195-0.415-0.434-0.47-0.714c-0.213,0.37-0.487,0.661-0.823,0.873
			c-0.336,0.213-0.817,0.319-1.444,0.319c-0.403,0-0.734-0.07-0.991-0.21c-0.258-0.14-0.465-0.327-0.622-0.563
			s-0.266-0.501-0.327-0.798c-0.062-0.296-0.093-0.602-0.093-0.915c0-0.593,0.045-1.094,0.135-1.503
			c0.089-0.408,0.274-0.738,0.554-0.99c0.28-0.252,0.683-0.431,1.209-0.537c0.526-0.106,1.226-0.16,2.1-0.16v-0.688
			c0-0.313-0.011-0.584-0.034-0.814c-0.022-0.229-0.076-0.419-0.16-0.57s-0.205-0.261-0.361-0.327
			c-0.157-0.067-0.369-0.102-0.638-0.102c-0.459,0-0.764,0.124-0.916,0.37c-0.151,0.246-0.249,0.654-0.294,1.226l-1.327-0.117
			c0.034-0.471,0.086-0.879,0.16-1.227c0.072-0.347,0.196-0.635,0.369-0.864c0.174-0.229,0.417-0.397,0.731-0.504
			C129.143,113.708,129.557,113.655,130.072,113.655z M131.298,118.356c-0.538,0.033-0.969,0.081-1.293,0.143
			c-0.325,0.062-0.571,0.168-0.739,0.319s-0.28,0.361-0.336,0.63s-0.084,0.627-0.084,1.074c0,0.459,0.062,0.809,0.185,1.05
			c0.123,0.24,0.358,0.361,0.705,0.361c0.437,0,0.781-0.141,1.033-0.42c0.252-0.28,0.428-0.683,0.529-1.209V118.356z"/>
		<path fill="#FFFFFF" d="M134.17,122.924v-13.231l1.579-0.286v13.518H134.17z"/>
		<path fill="#FFFFFF" d="M139.898,113.655c0.716,0,1.273,0.123,1.671,0.369c0.397,0.246,0.691,0.565,0.882,0.957
			c0.19,0.392,0.302,0.828,0.336,1.31c0.033,0.481,0.05,0.957,0.05,1.428v0.705h-4.417c0,0.459,0.014,0.896,0.042,1.31
			c0.028,0.414,0.095,0.781,0.201,1.1c0.106,0.319,0.269,0.571,0.487,0.756s0.523,0.277,0.916,0.277
			c0.548,0,0.921-0.162,1.117-0.487c0.196-0.324,0.322-0.767,0.378-1.326l1.277,0.185c-0.056,0.47-0.146,0.885-0.269,1.242
			c-0.123,0.358-0.294,0.658-0.512,0.898c-0.218,0.241-0.498,0.423-0.84,0.546s-0.759,0.185-1.251,0.185
			c-0.728,0-1.293-0.132-1.696-0.395s-0.706-0.613-0.907-1.05c-0.201-0.437-0.325-0.938-0.369-1.502
			c-0.045-0.565-0.067-1.15-0.067-1.755c0-0.649,0.022-1.266,0.067-1.848c0.044-0.582,0.165-1.085,0.361-1.511
			s0.493-0.765,0.89-1.016C138.641,113.781,139.192,113.655,139.898,113.655z M139.915,114.78c-0.336,0-0.596,0.066-0.781,0.201
			c-0.185,0.135-0.328,0.319-0.429,0.554c-0.101,0.235-0.165,0.519-0.193,0.849c-0.028,0.33-0.048,0.696-0.059,1.1h2.906v-0.672
			c0-0.279-0.02-0.543-0.059-0.789s-0.109-0.462-0.21-0.646c-0.101-0.185-0.246-0.33-0.437-0.437S140.217,114.78,139.915,114.78z"/>
		<path fill="#FFFFFF" d="M146.365,113.655c0.471,0,0.849,0.033,1.134,0.101c0.286,0.067,0.513,0.182,0.681,0.344
			c0.168,0.163,0.291,0.378,0.369,0.646c0.079,0.269,0.151,0.6,0.219,0.991l-1.243,0.234c-0.056-0.38-0.143-0.651-0.26-0.813
			s-0.367-0.244-0.748-0.244c-0.325,0-0.583,0.07-0.772,0.21c-0.191,0.141-0.286,0.395-0.286,0.765c0,0.335,0.064,0.621,0.193,0.855
			c0.129,0.235,0.373,0.454,0.731,0.655c0.37,0.201,0.708,0.384,1.016,0.546s0.571,0.347,0.79,0.554s0.389,0.462,0.512,0.765
			c0.123,0.302,0.185,0.693,0.185,1.175c0,0.873-0.21,1.542-0.63,2.007s-1.106,0.697-2.058,0.697c-0.851,0-1.484-0.219-1.898-0.655
			c-0.415-0.437-0.622-1.164-0.622-2.183l1.361-0.202c0,0.247,0.017,0.479,0.05,0.697c0.034,0.218,0.092,0.411,0.176,0.579
			s0.199,0.3,0.344,0.395c0.146,0.096,0.336,0.143,0.571,0.143c0.538,0,0.89-0.117,1.058-0.353c0.168-0.234,0.252-0.56,0.252-0.974
			c0-0.504-0.126-0.884-0.378-1.142s-0.602-0.493-1.05-0.705c-0.336-0.157-0.633-0.319-0.89-0.487
			c-0.258-0.168-0.473-0.358-0.646-0.571c-0.174-0.212-0.308-0.459-0.403-0.738c-0.095-0.28-0.143-0.616-0.143-1.008
			c0-0.347,0.036-0.66,0.109-0.94c0.073-0.279,0.202-0.521,0.386-0.722c0.185-0.201,0.429-0.355,0.731-0.462
			S145.895,113.655,146.365,113.655z"/>
		<path fill="#FFFFFF" d="M158.71,110.414v1.31h-3.477v4.147h2.822l-0.134,1.327h-2.688v5.726h-1.68v-12.51H158.71z"/>
		<path fill="#FFFFFF" d="M160.474,113.806c0.089,0.481,0.134,0.98,0.134,1.495c0.224-0.471,0.56-0.837,1.008-1.101
			c0.448-0.263,0.968-0.395,1.562-0.395l-0.134,1.579c-0.392,0-0.717,0.039-0.974,0.117c-0.258,0.078-0.473,0.193-0.647,0.345
			c-0.174,0.15-0.308,0.344-0.403,0.579c-0.096,0.234-0.166,0.504-0.21,0.806v5.692h-1.579v-9.118H160.474z"/>
		<path fill="#FFFFFF" d="M166.538,113.655c0.716,0,1.273,0.123,1.671,0.369c0.397,0.246,0.691,0.565,0.882,0.957
			c0.19,0.392,0.302,0.828,0.336,1.31c0.033,0.481,0.05,0.957,0.05,1.428v0.705h-4.417c0,0.459,0.014,0.896,0.042,1.31
			c0.028,0.414,0.095,0.781,0.201,1.1c0.106,0.319,0.269,0.571,0.487,0.756s0.523,0.277,0.916,0.277
			c0.548,0,0.921-0.162,1.117-0.487c0.196-0.324,0.322-0.767,0.378-1.326l1.277,0.185c-0.056,0.47-0.146,0.885-0.269,1.242
			c-0.123,0.358-0.294,0.658-0.512,0.898c-0.218,0.241-0.498,0.423-0.84,0.546s-0.759,0.185-1.251,0.185
			c-0.728,0-1.293-0.132-1.696-0.395s-0.706-0.613-0.907-1.05c-0.201-0.437-0.325-0.938-0.369-1.502
			c-0.045-0.565-0.067-1.15-0.067-1.755c0-0.649,0.022-1.266,0.067-1.848c0.044-0.582,0.165-1.085,0.361-1.511
			s0.493-0.765,0.89-1.016C165.28,113.781,165.832,113.655,166.538,113.655z M166.554,114.78c-0.336,0-0.596,0.066-0.781,0.201
			c-0.185,0.135-0.328,0.319-0.429,0.554c-0.101,0.235-0.165,0.519-0.193,0.849c-0.028,0.33-0.048,0.696-0.059,1.1h2.906v-0.672
			c0-0.279-0.02-0.543-0.059-0.789s-0.109-0.462-0.21-0.646c-0.101-0.185-0.246-0.33-0.437-0.437S166.856,114.78,166.554,114.78z"/>
		<path fill="#FFFFFF" d="M172.005,114.075c0.017,0.111,0.033,0.234,0.05,0.369c0.017,0.134,0.031,0.263,0.042,0.386
			c0.011,0.124,0.017,0.225,0.017,0.303c0.269-0.471,0.594-0.834,0.974-1.092c0.381-0.257,0.862-0.386,1.445-0.386
			c0.403,0,0.733,0.066,0.991,0.201c0.258,0.135,0.462,0.316,0.613,0.546s0.254,0.489,0.311,0.78
			c0.056,0.292,0.084,0.594,0.084,0.907v6.834h-1.579v-6.918c0-0.336-0.09-0.599-0.269-0.789s-0.442-0.286-0.789-0.286
			c-0.392,0-0.708,0.112-0.949,0.336c-0.241,0.225-0.484,0.588-0.73,1.092v6.565h-1.579v-9.118h1.327
			C171.974,113.873,171.988,113.963,172.005,114.075z"/>
		<path fill="#FFFFFF" d="M179.455,113.806h2.284l-0.134,1.125h-2.15v5.659c0,0.347,0.078,0.618,0.235,0.814
			s0.325,0.294,0.504,0.294c0.246,0,0.439-0.064,0.58-0.193s0.271-0.321,0.395-0.579l0.655,0.974
			c-0.146,0.291-0.386,0.549-0.722,0.772c-0.336,0.225-0.773,0.336-1.31,0.336c-0.605,0-1.075-0.177-1.411-0.529
			s-0.504-0.915-0.504-1.688v-5.86h-0.688l0.117-1.125h0.571v-2.3l1.579-0.269V113.806z"/>
		<path fill="#FFFFFF" d="M185.283,113.655c0.716,0,1.273,0.123,1.671,0.369c0.397,0.246,0.69,0.565,0.882,0.957
			c0.19,0.392,0.302,0.828,0.336,1.31c0.033,0.481,0.05,0.957,0.05,1.428v0.705h-4.417c0,0.459,0.014,0.896,0.042,1.31
			c0.028,0.414,0.095,0.781,0.201,1.1c0.106,0.319,0.269,0.571,0.487,0.756s0.523,0.277,0.916,0.277
			c0.548,0,0.921-0.162,1.117-0.487c0.196-0.324,0.322-0.767,0.378-1.326l1.276,0.185c-0.056,0.47-0.146,0.885-0.269,1.242
			c-0.123,0.358-0.294,0.658-0.512,0.898c-0.219,0.241-0.499,0.423-0.84,0.546s-0.759,0.185-1.251,0.185
			c-0.728,0-1.293-0.132-1.696-0.395s-0.706-0.613-0.907-1.05c-0.201-0.437-0.325-0.938-0.369-1.502
			c-0.045-0.565-0.067-1.15-0.067-1.755c0-0.649,0.022-1.266,0.067-1.848c0.044-0.582,0.165-1.085,0.361-1.511
			s0.493-0.765,0.89-1.016C184.025,113.781,184.577,113.655,185.283,113.655z M185.299,114.78c-0.336,0-0.596,0.066-0.781,0.201
			c-0.185,0.135-0.328,0.319-0.429,0.554c-0.101,0.235-0.165,0.519-0.193,0.849c-0.028,0.33-0.048,0.696-0.059,1.1h2.906v-0.672
			c0-0.279-0.02-0.543-0.059-0.789s-0.109-0.462-0.21-0.646c-0.101-0.185-0.246-0.33-0.437-0.437S185.602,114.78,185.299,114.78z"/>
		<path fill="#FFFFFF" d="M192.941,113.806h1.327c0.044,0.437,0.078,0.874,0.101,1.311c0.19-0.426,0.45-0.778,0.781-1.059
			c0.33-0.279,0.781-0.42,1.352-0.42c0.582,0,1.036,0.118,1.361,0.354c0.324,0.234,0.565,0.557,0.722,0.965
			c0.157,0.409,0.255,0.882,0.294,1.419s0.059,1.108,0.059,1.713c0,0.762-0.022,1.45-0.066,2.065
			c-0.045,0.615-0.151,1.139-0.319,1.57c-0.168,0.431-0.423,0.764-0.765,0.999c-0.342,0.234-0.809,0.353-1.402,0.353
			c-0.201,0-0.403-0.031-0.604-0.093c-0.202-0.062-0.387-0.146-0.555-0.252s-0.316-0.227-0.445-0.36
			c-0.129-0.135-0.227-0.27-0.294-0.403v4.635h-1.545V113.806z M196.016,121.799c0.302,0,0.543-0.069,0.722-0.21
			c0.179-0.14,0.311-0.358,0.395-0.655c0.084-0.296,0.138-0.674,0.16-1.133s0.033-1.008,0.033-1.646c0-0.56-0.008-1.044-0.025-1.453
			c-0.017-0.408-0.062-0.747-0.134-1.016c-0.073-0.269-0.188-0.47-0.345-0.604c-0.157-0.134-0.375-0.201-0.655-0.201
			c-0.269,0-0.495,0.045-0.68,0.134c-0.185,0.09-0.342,0.21-0.471,0.361s-0.235,0.333-0.319,0.546s-0.153,0.437-0.21,0.672v4.164
			c0.102,0.246,0.283,0.481,0.546,0.705C195.296,121.688,195.623,121.799,196.016,121.799z"/>
		<path fill="#FFFFFF" d="M202.583,113.655c0.582,0,1.053,0.066,1.411,0.201s0.639,0.339,0.84,0.613s0.336,0.615,0.403,1.023
			c0.067,0.409,0.101,0.882,0.101,1.419v4.249c0,0.324,0.064,0.526,0.193,0.604s0.271,0.117,0.428,0.117l-0.134,1.041
			c-0.571,0-0.985-0.098-1.243-0.294c-0.258-0.195-0.414-0.434-0.471-0.714c-0.213,0.37-0.486,0.661-0.822,0.873
			c-0.336,0.213-0.818,0.319-1.445,0.319c-0.402,0-0.733-0.07-0.99-0.21c-0.258-0.14-0.465-0.327-0.622-0.563
			s-0.266-0.501-0.327-0.798c-0.062-0.296-0.093-0.602-0.093-0.915c0-0.593,0.045-1.094,0.135-1.503
			c0.089-0.408,0.274-0.738,0.554-0.99c0.28-0.252,0.684-0.431,1.21-0.537s1.226-0.16,2.1-0.16v-0.688
			c0-0.313-0.012-0.584-0.034-0.814c-0.022-0.229-0.075-0.419-0.159-0.57s-0.204-0.261-0.361-0.327
			c-0.157-0.067-0.369-0.102-0.638-0.102c-0.46,0-0.765,0.124-0.916,0.37s-0.249,0.654-0.294,1.226l-1.327-0.117
			c0.034-0.471,0.087-0.879,0.16-1.227c0.072-0.347,0.195-0.635,0.369-0.864s0.417-0.397,0.73-0.504
			S202.068,113.655,202.583,113.655z M203.81,118.356c-0.538,0.033-0.969,0.081-1.294,0.143c-0.324,0.062-0.57,0.168-0.738,0.319
			s-0.28,0.361-0.336,0.63c-0.057,0.269-0.084,0.627-0.084,1.074c0,0.459,0.061,0.809,0.185,1.05
			c0.123,0.24,0.358,0.361,0.705,0.361c0.437,0,0.781-0.141,1.033-0.42c0.252-0.28,0.429-0.683,0.529-1.209V118.356z"/>
		<path fill="#FFFFFF" d="M207.925,113.806c0.089,0.481,0.134,0.98,0.134,1.495c0.225-0.471,0.561-0.837,1.008-1.101
			c0.448-0.263,0.969-0.395,1.563-0.395l-0.135,1.579c-0.392,0-0.717,0.039-0.974,0.117c-0.258,0.078-0.474,0.193-0.646,0.345
			c-0.174,0.15-0.309,0.344-0.403,0.579c-0.096,0.234-0.166,0.504-0.21,0.806v5.692h-1.579v-9.118H207.925z"/>
		<path fill="#FFFFFF" d="M213.921,113.655c0.582,0,1.053,0.066,1.411,0.201s0.639,0.339,0.84,0.613s0.336,0.615,0.403,1.023
			c0.067,0.409,0.101,0.882,0.101,1.419v4.249c0,0.324,0.064,0.526,0.193,0.604s0.271,0.117,0.428,0.117l-0.134,1.041
			c-0.571,0-0.985-0.098-1.243-0.294c-0.258-0.195-0.414-0.434-0.471-0.714c-0.213,0.37-0.486,0.661-0.822,0.873
			c-0.336,0.213-0.818,0.319-1.445,0.319c-0.402,0-0.733-0.07-0.99-0.21c-0.258-0.14-0.465-0.327-0.622-0.563
			s-0.266-0.501-0.327-0.798c-0.062-0.296-0.093-0.602-0.093-0.915c0-0.593,0.045-1.094,0.135-1.503
			c0.089-0.408,0.274-0.738,0.554-0.99c0.28-0.252,0.684-0.431,1.21-0.537s1.226-0.16,2.1-0.16v-0.688
			c0-0.313-0.012-0.584-0.034-0.814c-0.022-0.229-0.075-0.419-0.159-0.57s-0.204-0.261-0.361-0.327
			c-0.157-0.067-0.369-0.102-0.638-0.102c-0.46,0-0.765,0.124-0.916,0.37s-0.249,0.654-0.294,1.226l-1.327-0.117
			c0.034-0.471,0.087-0.879,0.16-1.227c0.072-0.347,0.195-0.635,0.369-0.864s0.417-0.397,0.73-0.504
			S213.406,113.655,213.921,113.655z M215.147,118.356c-0.538,0.033-0.969,0.081-1.294,0.143c-0.324,0.062-0.57,0.168-0.738,0.319
			s-0.28,0.361-0.336,0.63c-0.057,0.269-0.084,0.627-0.084,1.074c0,0.459,0.061,0.809,0.185,1.05
			c0.123,0.24,0.358,0.361,0.705,0.361c0.437,0,0.781-0.141,1.033-0.42c0.252-0.28,0.429-0.683,0.529-1.209V118.356z"/>
		<path fill="#FFFFFF" d="M221.58,122.924v-13.231l1.579-0.286v13.518H221.58z"/>
		<path fill="#FFFFFF" d="M227.038,113.655c0.582,0,1.053,0.066,1.411,0.201s0.639,0.339,0.84,0.613s0.336,0.615,0.403,1.023
			c0.067,0.409,0.101,0.882,0.101,1.419v4.249c0,0.324,0.064,0.526,0.193,0.604s0.271,0.117,0.428,0.117l-0.134,1.041
			c-0.571,0-0.985-0.098-1.243-0.294c-0.258-0.195-0.414-0.434-0.471-0.714c-0.213,0.37-0.486,0.661-0.822,0.873
			c-0.336,0.213-0.818,0.319-1.445,0.319c-0.402,0-0.733-0.07-0.99-0.21c-0.258-0.14-0.465-0.327-0.622-0.563
			s-0.266-0.501-0.327-0.798c-0.062-0.296-0.093-0.602-0.093-0.915c0-0.593,0.045-1.094,0.135-1.503
			c0.089-0.408,0.274-0.738,0.554-0.99c0.28-0.252,0.684-0.431,1.21-0.537s1.226-0.16,2.1-0.16v-0.688
			c0-0.313-0.012-0.584-0.034-0.814c-0.022-0.229-0.075-0.419-0.159-0.57s-0.204-0.261-0.361-0.327
			c-0.157-0.067-0.369-0.102-0.638-0.102c-0.46,0-0.765,0.124-0.916,0.37s-0.249,0.654-0.294,1.226l-1.327-0.117
			c0.034-0.471,0.087-0.879,0.16-1.227c0.072-0.347,0.195-0.635,0.369-0.864s0.417-0.397,0.73-0.504
			S226.523,113.655,227.038,113.655z M228.265,118.356c-0.538,0.033-0.969,0.081-1.294,0.143c-0.324,0.062-0.57,0.168-0.738,0.319
			s-0.28,0.361-0.336,0.63c-0.057,0.269-0.084,0.627-0.084,1.074c0,0.459,0.061,0.809,0.185,1.05
			c0.123,0.24,0.358,0.361,0.705,0.361c0.437,0,0.781-0.141,1.033-0.42c0.252-0.28,0.429-0.683,0.529-1.209V118.356z"/>
		<path fill="#FFFFFF" d="M237.654,120.053l1.714-9.639h1.578l-2.52,12.51h-1.746l-2.503-12.51h1.797L237.654,120.053z"/>
		<path fill="#FFFFFF" d="M243.349,111.942h-1.579v-2.183h1.579V111.942z M243.349,122.924h-1.579v-9.118h1.579V122.924z"/>
		<path fill="#FFFFFF" d="M247.547,113.655c0.471,0,0.859,0.053,1.167,0.159c0.309,0.106,0.558,0.277,0.748,0.512
			c0.19,0.235,0.33,0.544,0.42,0.924c0.089,0.381,0.146,0.846,0.168,1.394l-1.294,0.202c-0.045-0.694-0.143-1.189-0.294-1.486
			c-0.15-0.297-0.456-0.445-0.915-0.445c-0.358,0-0.636,0.079-0.831,0.235c-0.196,0.157-0.342,0.386-0.438,0.688
			c-0.095,0.302-0.15,0.666-0.168,1.092c-0.017,0.425-0.024,0.906-0.024,1.443c0,0.538,0.008,1.021,0.024,1.453
			c0.018,0.431,0.067,0.797,0.151,1.1c0.084,0.302,0.216,0.534,0.395,0.696c0.18,0.163,0.432,0.244,0.756,0.244
			c0.28,0,0.507-0.051,0.681-0.151s0.308-0.243,0.403-0.428c0.095-0.186,0.165-0.412,0.21-0.681c0.044-0.269,0.078-0.57,0.101-0.906
			l1.293,0.134c-0.022,0.403-0.064,0.801-0.126,1.192s-0.185,0.742-0.369,1.05s-0.451,0.557-0.798,0.747
			c-0.348,0.19-0.813,0.285-1.395,0.285c-0.705,0-1.254-0.126-1.646-0.378c-0.393-0.252-0.681-0.596-0.865-1.032
			s-0.294-0.94-0.327-1.512c-0.034-0.57-0.051-1.175-0.051-1.813c0-0.648,0.017-1.259,0.051-1.83
			c0.033-0.571,0.147-1.068,0.344-1.494s0.498-0.765,0.907-1.016C246.233,113.781,246.808,113.655,247.547,113.655z"/>
		<path fill="#FFFFFF" d="M252.771,113.806h2.284l-0.135,1.125h-2.149v5.659c0,0.347,0.078,0.618,0.235,0.814
			c0.156,0.196,0.324,0.294,0.504,0.294c0.246,0,0.438-0.064,0.579-0.193c0.14-0.129,0.271-0.321,0.395-0.579l0.655,0.974
			c-0.146,0.291-0.387,0.549-0.723,0.772c-0.336,0.225-0.772,0.336-1.31,0.336c-0.604,0-1.075-0.177-1.411-0.529
			s-0.504-0.915-0.504-1.688v-5.86h-0.688l0.117-1.125h0.571v-2.3l1.579-0.269V113.806z"/>
		<path fill="#FFFFFF" d="M258.717,113.655c0.772,0,1.369,0.129,1.789,0.386c0.42,0.258,0.728,0.604,0.924,1.041
			c0.195,0.437,0.311,0.943,0.344,1.52c0.034,0.577,0.051,1.179,0.051,1.806s-0.017,1.223-0.051,1.788
			c-0.033,0.565-0.148,1.063-0.344,1.494c-0.196,0.432-0.504,0.775-0.924,1.033c-0.42,0.257-1.017,0.386-1.789,0.386
			s-1.366-0.129-1.78-0.386c-0.415-0.258-0.72-0.602-0.916-1.033c-0.196-0.431-0.311-0.929-0.344-1.494
			c-0.034-0.565-0.051-1.161-0.051-1.788s0.017-1.229,0.051-1.806c0.033-0.576,0.147-1.083,0.344-1.52s0.504-0.783,0.924-1.041
			C257.364,113.784,257.955,113.655,258.717,113.655z M258.717,114.931c-0.37,0-0.655,0.067-0.856,0.202
			c-0.202,0.134-0.354,0.344-0.454,0.63c-0.101,0.285-0.159,0.646-0.176,1.083c-0.018,0.437-0.025,0.957-0.025,1.562
			s0.008,1.122,0.025,1.553c0.017,0.432,0.075,0.789,0.176,1.075c0.101,0.285,0.252,0.495,0.454,0.629
			c0.201,0.135,0.486,0.202,0.856,0.202c0.369,0,0.655-0.067,0.856-0.202c0.201-0.134,0.353-0.344,0.453-0.629
			c0.102-0.286,0.16-0.644,0.177-1.075c0.017-0.431,0.025-0.948,0.025-1.553s-0.009-1.125-0.025-1.562s-0.075-0.798-0.177-1.083
			c-0.101-0.286-0.252-0.496-0.453-0.63C259.372,114.998,259.086,114.931,258.717,114.931z"/>
		<path fill="#FFFFFF" d="M264.243,113.806c0.089,0.481,0.134,0.98,0.134,1.495c0.225-0.471,0.561-0.837,1.008-1.101
			c0.448-0.263,0.969-0.395,1.563-0.395l-0.135,1.579c-0.392,0-0.717,0.039-0.974,0.117c-0.258,0.078-0.474,0.193-0.646,0.345
			c-0.174,0.15-0.309,0.344-0.403,0.579c-0.096,0.234-0.166,0.504-0.21,0.806v5.692H263v-9.118H264.243z"/>
		<path fill="#FFFFFF" d="M269.282,111.942h-1.579v-2.183h1.579V111.942z M269.282,122.924h-1.579v-9.118h1.579V122.924z"/>
		<path fill="#FFFFFF" d="M273.161,113.655c0.582,0,1.053,0.066,1.411,0.201s0.639,0.339,0.84,0.613s0.336,0.615,0.403,1.023
			c0.067,0.409,0.101,0.882,0.101,1.419v4.249c0,0.324,0.064,0.526,0.193,0.604s0.271,0.117,0.428,0.117l-0.134,1.041
			c-0.571,0-0.985-0.098-1.243-0.294c-0.258-0.195-0.414-0.434-0.471-0.714c-0.213,0.37-0.486,0.661-0.822,0.873
			c-0.336,0.213-0.818,0.319-1.445,0.319c-0.402,0-0.733-0.07-0.99-0.21c-0.258-0.14-0.465-0.327-0.622-0.563
			s-0.266-0.501-0.327-0.798c-0.062-0.296-0.093-0.602-0.093-0.915c0-0.593,0.045-1.094,0.135-1.503
			c0.089-0.408,0.274-0.738,0.554-0.99c0.28-0.252,0.684-0.431,1.21-0.537s1.226-0.16,2.1-0.16v-0.688
			c0-0.313-0.012-0.584-0.034-0.814c-0.022-0.229-0.075-0.419-0.159-0.57s-0.204-0.261-0.361-0.327
			c-0.157-0.067-0.369-0.102-0.638-0.102c-0.46,0-0.765,0.124-0.916,0.37s-0.249,0.654-0.294,1.226l-1.327-0.117
			c0.034-0.471,0.087-0.879,0.16-1.227c0.072-0.347,0.195-0.635,0.369-0.864s0.417-0.397,0.73-0.504
			S272.646,113.655,273.161,113.655z M274.388,118.356c-0.538,0.033-0.969,0.081-1.294,0.143c-0.324,0.062-0.57,0.168-0.738,0.319
			s-0.28,0.361-0.336,0.63c-0.057,0.269-0.084,0.627-0.084,1.074c0,0.459,0.061,0.809,0.185,1.05
			c0.123,0.24,0.358,0.361,0.705,0.361c0.437,0,0.781-0.141,1.033-0.42c0.252-0.28,0.429-0.683,0.529-1.209V118.356z"/>
	</g>
	<g>
		<defs>
			<rect id="SVGID_1_" width="166" height="101"/>
		</defs>
		<clipPath id="SVGID_2_">
			<use xlink:href="#SVGID_1_"  overflow="visible"/>
		</clipPath>
		<g clip-path="url(#SVGID_2_)">
			<g>
				<path fill="#1B78B6" d="M86.55,14.447c35.658,0,64.668,28.999,64.668,64.644c0,35.648-29.01,64.65-64.668,64.65
					c-35.659,0-64.67-29.002-64.67-64.65C21.879,43.446,50.891,14.447,86.55,14.447 M86.55,3.942
					c-41.52,0-75.175,33.646-75.175,75.148c0,41.506,33.655,75.155,75.175,75.155c41.518,0,75.173-33.648,75.173-75.155
					C161.723,37.588,128.068,3.942,86.55,3.942L86.55,3.942z"/>
			</g>
			<g>
				<g>
					<path fill="#1D8CC3" d="M42.816,49.579c12.101,10.439,20.292,17.89,27.667,24.599c14.576,13.26,24.675,22.447,52.064,42.697
						c-9.671,9.182-22.603,14.453-36.168,14.453c-28.939,0-52.483-23.532-52.483-52.458C33.896,68.289,37.016,58.168,42.816,49.579
						 M41.53,34.65C30.311,46.023,23.392,61.635,23.392,78.87c0,34.773,28.199,62.963,62.987,62.963
						c21.292,0,40.118-10.559,51.516-26.731C85.265,76.813,89.31,75.253,41.53,34.65L41.53,34.65z"/>
				</g>
				<g>
					<path fill="#1D8CC3" d="M86.379,26.403c28.938,0,52.481,23.537,52.481,52.467c0,10.773-3.322,21.253-9.44,30.016
						c-4.9-3.452-16.376-13.565-39.975-43.004C79.006,52.859,69.363,39.995,63.287,31.743C70.5,28.2,78.268,26.403,86.379,26.403
						 M86.379,15.899c-10.055,0-19.563,2.358-27.993,6.549c-3.619,1.798-10.223,6.361-10.223,6.361s65.755,92.213,83.294,92.213
						c1.13,0,2.062-0.384,2.761-1.199c9.44-11.01,15.146-25.316,15.146-40.953C149.364,44.09,121.164,15.899,86.379,15.899
						L86.379,15.899z"/>
				</g>
				<g>
					<path fill="#FFFFFF" d="M81.187,71.406c-9.658-3.058-28.157-8.971-48.323-15.711c8.424-19.613,26.869-32.998,48.146-34.938
						C81.026,41.757,81.126,61.234,81.187,71.406z"/>
					<path fill="#FFFFFF" d="M75.65,26.966c0.021,14.346,0.078,27.579,0.128,37.088c-9.031-2.883-21.625-6.945-35.367-11.504
						C47.917,39.343,60.757,30.022,75.65,26.966 M86.376,15.146c-28.244,0-52.188,18.401-60.492,43.868
						c31.822,10.714,60.719,19.725,60.719,19.725S86.375,48.157,86.376,15.146L86.376,15.146z"/>
				</g>
				<g>
					<path fill="#FFFFFF" d="M125.138,122.762c-8.256-11.08-17.838-24.305-24.747-33.9c10.253,3.277,24.63,7.927,39.971,13.057
						C136.92,109.863,131.68,117.038,125.138,122.762z"/>
					<path fill="#FFFFFF" d="M114.348,99c5.722,1.859,11.956,3.902,18.445,6.056c-1.968,3.434-4.322,6.651-7.002,9.575
						C122.008,109.511,118.078,104.133,114.348,99 M86.624,78.87c0,0,22.199,31.169,37.53,51.535
						c10.769-7.803,18.992-18.896,23.2-31.805C115.526,87.882,86.624,78.87,86.624,78.87L86.624,78.87z"/>
				</g>
				<g>
					<g>
						<path fill="#25A0D8" d="M86.651,38.273c7.104,0,13.952,1.819,20.023,5.289c-18.312,9.41-25.983,12.009-57.797,20.683
							C54.709,49.071,69.442,38.273,86.651,38.273 M86.651,27.769c-28.144,0-50.951,22.803-50.951,50.934
							c55.451-15.013,55.063-14.804,89.688-33.087c-2.714-3.172-5.809-6.003-9.213-8.43C107.845,31.255,97.656,27.769,86.651,27.769
							L86.651,27.769z"/>
					</g>
					<g>
						<path fill="#25A0D8" d="M125.013,65.873c1.372,4.109,2.08,8.442,2.08,12.83c0,22.292-18.142,40.426-40.442,40.426
							c-19.372,0-35.725-13.674-39.584-32.104C83.042,79.358,98.419,75.773,125.013,65.873 M130.401,52.584
							C96.375,65.773,82.794,68.698,35.7,78.703c0,0.985,0.028,1.965,0.086,2.932c1.519,26.763,23.71,48,50.864,48
							c28.139,0,50.946-22.807,50.946-50.931C137.597,69.156,134.971,60.22,130.401,52.584L130.401,52.584z"/>
					</g>
					<g>
						<path fill="#FFFFFF" d="M103.413,65.981c3.563-5.04,8.133-11.384,13.925-19.235c3.418,3.27,6.272,7.045,8.479,11.214
							L103.413,65.981z"/>
						<path fill="#FFFFFF" d="M116.16,37.178C92.821,68.543,86.506,79.09,86.506,79.09s0,0,48.229-17.267
							C131.216,51.808,124.656,43.221,116.16,37.178L116.16,37.178z"/>
					</g>
					<g>
						<path fill="#FFFFFF" d="M42.817,86.355c-0.602-2.733-0.896-5.204-0.905-7.538c0.196-5.268,0.797-8.667,1.584-11.331
							c10.59,4.648,18.504,8.12,24.376,10.695L42.817,86.355z"/>
						<path fill="#FFFFFF" d="M48.655,77.005c0.201,0.088,0.4,0.176,0.598,0.263l-0.626,0.204
							C48.635,77.315,48.645,77.159,48.655,77.005 M39.816,58.615c-1.851,4.434-4.138,8.646-4.547,20.087
							c0,5.63,1.348,11.049,3.037,16.113C86.506,79.09,86.506,79.09,86.506,79.09S79.304,75.951,39.816,58.615L39.816,58.615z"/>
					</g>
				</g>
				<g>
					<path fill="#81BCDB" d="M86.884,50.375c15.585,0,28.265,12.677,28.265,28.259c0,15.575-12.68,28.247-28.265,28.247
						S58.619,94.209,58.619,78.634C58.619,63.052,71.299,50.375,86.884,50.375 M86.884,39.87c-21.414,0-38.77,17.347-38.77,38.764
						c0,21.396,17.356,38.751,38.77,38.751c21.411,0,38.77-17.354,38.77-38.751C125.654,57.217,108.295,39.87,86.884,39.87
						L86.884,39.87z"/>
				</g>
				<g>
					<path fill="#81BCDB" d="M107.34,86.352L107.34,86.352c2.267,0,4.476,0.136,6.619,0.404
						c-3.355,11.146-13.429,19.414-25.496,20.081c2.679-7.859,5.024-14.743,6.545-19.205
						C98.068,86.999,102.402,86.352,107.34,86.352 M107.339,75.848c-11.727,0-20.455,3.057-20.455,3.057
						s-5.975,17.537-12.422,36.446c3.901,1.315,8.077,2.034,12.422,2.034c21.411,0,38.77-17.354,38.77-38.751
						C119.281,76.551,112.965,75.848,107.339,75.848L107.339,75.848z"/>
				</g>
				<g>
					<path fill="#FFFFFF" d="M86.764,78.905c0,0-10.069,13.539-22.959,30.866c5.561,4.123,13.329,7.668,22.705,7.668
						c1.496,0,3.035-0.091,4.61-0.283C89.164,98.247,86.764,78.905,86.764,78.905L86.764,78.905z"/>
				</g>
				<g>
					<path fill="#FFFFFF" d="M86.764,78.569c0,0,0.125,0,0.125-40.132c28.516-0.093,46.119,26.912,38.267,52.29
						C106.085,84.901,86.764,78.569,86.764,78.569z"/>
				</g>
				<g>
					<path fill="#D6B63A" d="M86.672,62.657c8.939,0,16.212,7.273,16.212,16.213c0,8.931-7.273,16.196-16.212,16.196
						c-8.941,0-16.215-7.266-16.215-16.196C70.458,69.93,77.731,62.657,86.672,62.657 M86.672,52.152
						c-14.758,0-26.719,11.956-26.719,26.718c0,14.745,11.961,26.7,26.719,26.7c14.754,0,26.717-11.955,26.717-26.7
						C113.389,64.108,101.427,52.152,86.672,52.152L86.672,52.152z"/>
				</g>
				<g>
					<path fill="#FFFFFF" d="M68.455,91.243c-2.587-3.679-4-8.086-4-12.744c0-12.269,9.981-22.25,22.25-22.25
						c2.48,0,4.895,0.399,7.18,1.176c-11.057,13.618-14.05,17.824-24.708,32.803C68.94,90.562,68.699,90.899,68.455,91.243z"/>
					<path fill="#FFFFFF" d="M79.251,64.934c-2.655,3.435-4.973,6.559-7.682,10.306C72.524,70.803,75.385,67.066,79.251,64.934
						 M86.706,49.479c-16.03,0-29.02,12.984-29.02,29.019c-0.001,9.495,4.566,17.924,11.624,23.213
						c17.235-24.166,17.563-25.047,34.965-46.314C99.398,51.686,93.311,49.479,86.706,49.479L86.706,49.479z"/>
				</g>
				<path fill="#FFFFFF" d="M103.473,79.09c0,9.09-7.369,16.458-16.456,16.458c-9.088,0-16.461-7.367-16.461-16.458
					c0-9.089,7.373-16.452,16.461-16.452C96.104,62.639,103.473,70.001,103.473,79.09z"/>
				<path fill="#D6B63A" d="M86.798,78.809c0,0,0,0-13.572,5.417c-0.552-1.541-0.861-3.203-0.861-4.935
					c0-8.048,6.528-14.566,14.575-14.566C86.798,78.809,86.798,78.809,86.798,78.809z"/>
			</g>
		</g>
	</g>
	<line fill="none" stroke="#1B78B6" stroke-width="3" stroke-miterlimit="10" x1="14" y1="101.5" x2="350" y2="101.5"/>
</g>
</svg>
